<svg xmlns="http://www.w3.org/2000/svg" xmlns:xlink="http://www.w3.org/1999/xlink" width="18" height="18" viewBox="0 0 18 18" fill="none">
<path d="M5 0L3 0C1.34315 0 0 1.34315 0 3L0 5C0 6.65685 1.34315 8 3 8L5 8C6.65685 8 8 6.65685 8 5L8 3C8 1.34315 6.65685 0 5 0ZM15 0L13 0C11.3431 0 10 1.34315 10 3L10 5C10 6.65685 11.3431 8 13 8L15 8C16.6569 8 18 6.65685 18 5L18 3C18 1.34315 16.6569 0 15 0ZM5 10L3 10C1.34315 10 0 11.3431 0 13L0 15C0 16.6569 1.34315 18 3 18L5 18C6.65685 18 8 16.6569 8 15L8 13C8 11.3431 6.65685 10 5 10ZM15 10L13 10C11.3431 10 10 11.3431 10 13L10 15C10 16.6569 11.3431 18 13 18L15 18C16.6569 18 18 16.6569 18 15L18 13C18 11.3431 16.6569 10 15 10Z" fill-rule="evenodd"  fill="#7D8592" >
</path>
</svg>
