<svg xmlns="http://www.w3.org/2000/svg" xmlns:xlink="http://www.w3.org/1999/xlink" width="21" height="16" viewBox="0 0 21 16" fill="none">
<path d="M19.4793 5.33333L18.2529 5.33333L18.2392 4.26012C18.2252 3.16562 17.334 2.28571 16.2394 2.28571L10.4751 2.28571C10.258 2.28571 10.0468 2.21506 9.87337 2.08444L7.6407 0.402546C7.2939 0.141299 6.8715 0 6.43731 0L2 0C0.895431 0 0 0.895431 0 2L0 14C0 15.1046 0.895431 16 2 16L16.5968 16C17.458 16 18.2224 15.4488 18.4944 14.6318L20.9223 7.33901C21.0763 6.87427 20.9986 6.36375 20.7133 5.96615C20.427 5.56926 19.9681 5.33394 19.4793 5.33333ZM6.25753 1.5239L2.5211 1.5239C1.96882 1.5239 1.5211 1.97162 1.5211 2.5239L1.5211 10.5431L2.90784 6.37537C3.11439 5.75276 3.69597 5.33283 4.35088 5.33342L16.7319 5.33342L16.7319 4.80961C16.7319 4.25733 16.2842 3.80961 15.7319 3.80961L10.1406 3.80961C9.81155 3.80892 9.4915 3.70204 9.22787 3.50483L6.85816 1.72445C6.68494 1.59431 6.47418 1.5239 6.25753 1.5239Z" fill-rule="evenodd"  fill="#7D8592" >
</path>
</svg>
