<svg xmlns="http://www.w3.org/2000/svg" xmlns:xlink="http://www.w3.org/1999/xlink" width="21" height="19" viewBox="0 0 21 19" fill="none">
<path d="M20.153 8.31957C19.0098 6.17856 16.8557 4.72546 14.3968 4.43648C13.313 1.96537 10.925 0.273163 8.17863 0.0300565C5.43221 -0.21305 2.77042 1.03217 1.24746 3.27253C-0.275505 5.5129 -0.413944 8.387 0.886968 10.7565L0.307165 12.7344C0.176145 13.181 0.30391 13.6617 0.64093 13.9902C0.97795 14.3187 1.47124 14.4433 1.92957 14.3157L3.95948 13.7506C4.7809 14.179 5.67719 14.4543 6.60228 14.5622C7.42916 16.4471 9.03004 17.9072 11.0148 18.5867C12.9995 19.2661 15.1857 19.1025 17.0407 18.1357L19.0705 18.7008C19.5288 18.8284 20.0221 18.7038 20.3591 18.3754C20.6961 18.047 20.824 17.5663 20.693 17.1197L20.1131 15.1417C21.2813 13.0135 21.2963 10.4606 20.153 8.31957ZM19.0217 9.40536C18.2748 7.69279 16.7361 6.42879 14.8777 6.001C15.2534 8.00244 14.7549 10.0659 13.5023 11.6937C12.2498 13.3216 10.3569 14.3662 8.28 14.5757C9.07541 15.9417 10.4011 16.9387 11.9588 17.3423C13.5165 17.7458 15.1753 17.5221 16.5619 16.7213C16.7394 16.6184 16.9526 16.5914 17.1512 16.6467L19.158 17.2054L18.5846 15.2498C18.5279 15.0562 18.5556 14.8485 18.6612 14.6754C19.6348 13.0747 19.7687 11.1179 19.0217 9.40536Z" fill-rule="evenodd"  fill="#3F8CFF" >
</path>
</svg>
