<svg xmlns="http://www.w3.org/2000/svg" xmlns:xlink="http://www.w3.org/1999/xlink" width="17.2061767578125" height="18.65673828125" viewBox="0 0 17.2061767578125 18.65673828125" fill="none">
<path d="M7.06682 0.292936L0.957863 4.02261C-0.331687 4.80991 -0.316137 6.68787 0.986291 7.45367L7.11824 11.0591C7.74535 11.4279 8.52319 11.427 9.14948 11.0568L15.2428 7.45583C16.5418 6.68812 16.5552 4.8133 15.2673 4.02702L9.15118 0.292936C8.51132 -0.0977143 7.70668 -0.0977143 7.06682 0.292936ZM9.11411 12.8769L9.00719 12.9291C8.75172 13.0337 8.45864 13.0168 8.21837 12.8797L1.70496 9.13031L1.60053 9.07796C1.14069 8.8799 0.595255 9.05362 0.339405 9.49808C0.0638736 9.97673 0.22853 10.5881 0.707175 10.8636L7.22397 14.615L7.4053 14.7102C8.26314 15.1223 9.27582 15.0896 10.1056 14.6138L16.7001 10.8664L16.7982 10.8029C17.2021 10.507 17.3289 9.94878 17.0755 9.50291C16.8026 9.02274 16.1922 8.85468 15.712 9.12755L9.11411 12.8769ZM9.01721 16.5368L8.91029 16.589C8.65482 16.6936 8.36174 16.6767 8.12147 16.5396L1.60806 12.7902L1.50363 12.7379C1.04379 12.5398 0.498355 12.7135 0.242505 13.158C-0.0330264 13.6366 0.13163 14.248 0.610275 14.5235L7.12707 18.2749L7.3084 18.3701C8.16624 18.7822 9.17892 18.7495 10.0087 18.2737L16.6032 14.5263L16.7013 14.4628C17.1052 14.1669 17.232 13.6087 16.9786 13.1628C16.7057 12.6826 16.0953 12.5146 15.6151 12.7874L9.01721 16.5368Z" fill-rule="evenodd"  fill="#3F8CFF" >
</path>
</svg>
