<svg xmlns="http://www.w3.org/2000/svg" xmlns:xlink="http://www.w3.org/1999/xlink" width="17.206222534179688" height="18.6566162109375" viewBox="0 0 17.206222534179688 18.6566162109375" fill="none">
<path d="M7.0668 0.292936L0.957847 4.02261C-0.331702 4.80991 -0.316152 6.68787 0.986276 7.45367L7.11823 11.0591C7.74534 11.4279 8.52318 11.427 9.14947 11.0568L15.2428 7.45583C16.5418 6.68812 16.5552 4.8133 15.2673 4.02702L9.15117 0.292936C8.5113 -0.0977143 7.70667 -0.0977143 7.0668 0.292936ZM9.11409 12.8769L9.00717 12.9291C8.75171 13.0337 8.45863 13.0168 8.21835 12.8797L1.70495 9.13031L1.60052 9.07796C1.14067 8.8799 0.59524 9.05362 0.339389 9.49808C0.0638583 9.97673 0.228515 10.5881 0.70716 10.8636L7.22396 14.615L7.40529 14.7102C8.26312 15.1223 9.2758 15.0896 10.1056 14.6138L16.7001 10.8664L16.7982 10.8029C17.202 10.507 17.3289 9.94878 17.0755 9.50291C16.8026 9.02274 16.1922 8.85468 15.712 9.12755L9.11409 12.8769ZM9.01719 16.5368L8.91027 16.589C8.65481 16.6936 8.36173 16.6767 8.12145 16.5396L1.60805 12.7902L1.50362 12.7379C1.04377 12.5398 0.49834 12.7135 0.242489 13.158C-0.0330417 13.6366 0.131615 14.248 0.61026 14.5235L7.12706 18.2749L7.30839 18.3701C8.16622 18.7822 9.1789 18.7495 10.0087 18.2737L16.6032 14.5263L16.7013 14.4628C17.1051 14.1669 17.232 13.6087 16.9786 13.1628C16.7057 12.6826 16.0953 12.5146 15.6151 12.7874L9.01719 16.5368Z" fill-rule="evenodd"  fill="#7D8592" >
</path>
</svg>
