<svg xmlns="http://www.w3.org/2000/svg" xmlns:xlink="http://www.w3.org/1999/xlink" width="21" height="19" viewBox="0 0 21 19" fill="none">
<path d="M20.153 8.31957C19.0098 6.17856 16.8557 4.72546 14.3968 4.43648C13.313 1.96537 10.925 0.273163 8.17863 0.0300565C5.43221 -0.21305 2.77042 1.03217 1.24746 3.27253C-0.275505 5.5129 -0.413944 8.387 0.886968 10.7565L0.307165 12.7344C0.176145 13.181 0.30391 13.6617 0.64093 13.9902C0.97795 14.3187 1.47124 14.4433 1.92957 14.3157L3.95948 13.7506C4.7809 14.179 5.67719 14.4543 6.60228 14.5622C7.42916 16.4471 9.03004 17.9072 11.0148 18.5867C12.9995 19.2661 15.1857 19.1025 17.0407 18.1357L19.0705 18.7008C19.5288 18.8284 20.0221 18.7038 20.3591 18.3754C20.6961 18.047 20.824 17.5663 20.693 17.1197L20.1131 15.1417C21.2813 13.0135 21.2963 10.4606 20.153 8.31957ZM19.0217 9.40486C18.2748 7.69229 16.7361 6.42829 14.8777 6.0005C15.2534 8.00194 14.7549 10.0654 13.5023 11.6932C12.2498 13.3211 10.3569 14.3657 8.28 14.5752C9.07541 15.9412 10.4011 16.9382 11.9588 17.3418C13.5165 17.7453 15.1753 17.5216 16.5619 16.7208C16.7394 16.6179 16.9526 16.5909 17.1512 16.6462L19.158 17.2049L18.5846 15.2493C18.5279 15.0557 18.5556 14.848 18.6612 14.6749C19.6348 13.0742 19.7687 11.1174 19.0217 9.40486Z" fill-rule="evenodd"  fill="#7D8592" >
</path>
</svg>
