<svg xmlns="http://www.w3.org/2000/svg" xmlns:xlink="http://www.w3.org/1999/xlink" width="22.891952514648438" height="14.8828125" viewBox="0 0 22.891952514648438 14.8828125" fill="none">
<path d="M13.027 4.03308C12.3023 1.63846 10.0906 0 7.58282 0C5.07507 0 2.86334 1.63846 2.13865 4.03308C1.41395 6.42769 2.34738 9.01313 4.43628 10.3971C2.702 11.0353 1.20309 12.184 0.138232 13.6912C-0.0247343 13.9221 -0.0451682 14.2243 0.0852411 14.4749C0.21565 14.7256 0.475181 14.8829 0.758285 14.8829L14.4071 14.8823C14.6902 14.8823 14.9497 14.725 15.0801 14.4744C15.2104 14.2237 15.19 13.9215 15.027 13.6906C13.9621 12.1837 12.4634 11.0352 10.7294 10.3971C12.8183 9.01313 13.7517 6.42769 13.027 4.03308ZM20.4726 3.30759C19.3047 0.771418 16.4608 -0.540562 13.767 0.214134C13.5267 0.281547 13.335 0.462617 13.2545 0.698307C13.174 0.933997 13.215 1.19411 13.364 1.39383C15.1177 3.74343 15.2618 6.92082 13.7281 9.41879C13.5229 9.75253 13.607 10.1873 13.9219 10.421C14.2094 10.6344 14.486 10.862 14.7506 11.103C14.7643 11.1179 14.7781 11.1326 14.7932 11.1465C15.8052 12.0798 16.6254 13.2006 17.2081 14.4464C17.3327 14.7126 17.6006 14.8828 17.8952 14.8827L22.1338 14.8822C22.4169 14.8822 22.6764 14.7248 22.8068 14.4742C22.9371 14.2236 22.9167 13.9214 22.7537 13.6905C21.6889 12.1836 20.1901 11.0351 18.456 10.397C20.7852 8.85049 21.6405 5.84377 20.4726 3.30759Z" fill-rule="evenodd"  fill="#3F8CFF" >
</path>
</svg>
