<svg xmlns="http://www.w3.org/2000/svg" xmlns:xlink="http://www.w3.org/1999/xlink" width="21" height="20.7666015625" viewBox="0 0 21 20.7666015625" fill="none">
<path     fill="#7D8592"  d="M13.4969 3.00276C13.4974 1.34482 12.1559 0.00045541 10.5007 3.80755e-05C8.84552 -0.000379259 7.50339 1.34331 7.50297 3.00125L7.49337 7.79191L1.09999 11.0137C0.425498 11.3536 1.80737e-16 12.0444 1.34489e-16 12.7997L-4.10801e-16 13.8043C-5.25017e-16 14.426 0.561387 14.8971 1.1737 14.7891L7.49245 13.6746L7.49245 16.2007L6.45276 17.4579C6.15621 17.8164 5.99396 18.2672 5.99396 18.7325L5.99396 19.7662C5.99396 20.4018 6.57918 20.8762 7.20101 20.7446L10.5007 20.0463L13.7769 20.7431C14.399 20.8754 14.9849 20.401 14.9849 19.765L14.9849 18.7256C14.9849 18.2645 14.8256 17.8175 14.5339 17.4604L13.5075 16.2039L13.5075 13.6746L19.8263 14.7891C20.4386 14.8971 21 14.426 21 13.8043L21 12.7997C21 12.0444 20.5745 11.3536 19.9 11.0137L13.5066 7.79191L13.4969 3.00276Z">
</path>
</svg>
