<svg xmlns="http://www.w3.org/2000/svg" xmlns:xlink="http://www.w3.org/1999/xlink" width="18" height="20" viewBox="0 0 18 20" fill="none">
<path d="M6 1C6 0.447715 5.55228 0 5 0C4.44772 0 4 0.447715 4 1L4 2C1.79086 2 0 3.79086 0 6L0 16C0 18.2091 1.79086 20 4 20L14 20C16.2091 20 18 18.2091 18 16L18 6C18 3.79086 16.2091 2 14 2L14 1C14 0.447715 13.5523 0 13 0C12.4477 0 12 0.447715 12 1L12 2L6 2L6 1ZM12 4L6 4C6 4.55228 5.55228 5 5 5C4.44772 5 4 4.55228 4 4C2.94564 4 2.08183 4.81588 2.00549 5.85074L2 6L2 7L16 7L16 6C16 4.94564 15.1841 4.08183 14.1493 4.00549L14 4C14 4.55228 13.5523 5 13 5C12.4477 5 12 4.55228 12 4ZM16 9L2 9L2 16C2 17.0544 2.81588 17.9182 3.85074 17.9945L4 18L14 18C15.0544 18 15.9182 17.1841 15.9945 16.1493L16 16L16 9Z" fill-rule="evenodd"  fill="#0A1629" >
</path>
</svg>
