<svg xmlns="http://www.w3.org/2000/svg" xmlns:xlink="http://www.w3.org/1999/xlink" width="18" height="20" viewBox="0 0 18 20" fill="none">
<path d="M6 1C6 0.447715 5.55228 0 5 0C4.44772 0 4 0.447715 4 1L4 2C1.79086 2 0 3.79086 0 6L0 16C0 18.2091 1.79086 20 4 20L14 20C16.2091 20 18 18.2091 18 16L18 6C18 3.79086 16.2091 2 14 2L14 1C14 0.447715 13.5523 0 13 0C12.4477 0 12 0.447715 12 1L12 2L6 2L6 1ZM4 4C4 4.55228 4.44772 5 5 5C5.55228 5 6 4.55228 6 4L12 4C12 4.55228 12.4477 5 13 5C13.5523 5 14 4.55228 14 4L14.1493 4.00549C15.1841 4.08183 16 4.94564 16 6L16 7L2 7L2 6L2.00549 5.85074C2.08183 4.81588 2.94564 4 4 4Z" fill-rule="evenodd"  fill="#7D8592" >
</path>
</svg>
